<?xml version="1.0" encoding="utf-8"?><svg viewBox="0 0 800 800" xmlns="http://www.w3.org/2000/svg" xmlns:xlink="http://www.w3.org/1999/xlink"><style>:root>svg{display:none}:root>svg:target{display:block}</style><svg fill="none" viewBox="0 0 25 24" id="arrow" xmlns="http://www.w3.org/2000/svg"><g clip-path="url(#aclip0_1_19728)"><path d="M5.5 12h14M15.5 16l4-4M15.5 8l4 4"/></g><defs><clipPath id="aclip0_1_19728"><path fill="#fff" transform="translate(.5)" d="M0 0h24v24H0z"/></clipPath></defs></svg><svg fill="none" viewBox="0 0 24 24" id="arrow2" xmlns="http://www.w3.org/2000/svg"><g clip-path="url(#bclip0_1_32053)"><path d="M18 9l-6 6-6-6" stroke="#212121" stroke-width="2" stroke-linecap="round" stroke-linejoin="round"/></g><defs><clipPath id="bclip0_1_32053"><path fill="#fff" transform="rotate(90 12 12)" d="M0 0h24v24H0z"/></clipPath></defs></svg><svg fill="none" viewBox="0 0 24 24" id="arrow2-str" xmlns="http://www.w3.org/2000/svg"><g clip-path="url(#cclip0_1_32053)"><path d="M18 9l-6 6-6-6"/></g><defs><clipPath id="cclip0_1_32053"><path fill="#fff" transform="rotate(90 12 12)" d="M0 0h24v24H0z"/></clipPath></defs></svg><svg viewBox="0 0 25 25" id="attention" xmlns="http://www.w3.org/2000/svg"><g fill-rule="evenodd" clip-rule="evenodd"><path d="M8.673 3.261a10 10 0 117.654 18.478A10 10 0 018.673 3.261zM12.5 4.5a8 8 0 100 16 8 8 0 000-16z"/><path d="M12.5 8.5a1 1 0 011 1v4a1 1 0 11-2 0v-4a1 1 0 011-1zM12.5 15.5a1 1 0 011 1v.01a1 1 0 11-2 0v-.01a1 1 0 011-1z"/></g></svg><svg viewBox="0 0 24 24" id="close" xmlns="http://www.w3.org/2000/svg"><path fill-rule="evenodd" clip-rule="evenodd" d="M19.207 6.207a1 1 0 00-1.414-1.414L12 10.586 6.207 4.793a1 1 0 00-1.414 1.414L10.586 12l-5.793 5.793a1 1 0 101.414 1.414L12 13.414l5.793 5.793a1 1 0 001.414-1.414L13.414 12l5.793-5.793z"/></svg><svg fill="none" viewBox="0 0 24 24" id="dollar" xmlns="http://www.w3.org/2000/svg"><g clip-path="url(#fclip0_1_32065)" stroke="#fff" stroke-width="2" stroke-linecap="round" stroke-linejoin="round"><path d="M16.7 8A3 3 0 0014 6h-4a3 3 0 100 6h4a3 3 0 010 6h-4a3 3 0 01-2.7-2M12 3v3m0 12v3"/></g><defs><clipPath id="fclip0_1_32065"><path fill="#fff" d="M0 0h24v24H0z"/></clipPath></defs></svg><svg fill="none" viewBox="0 0 24 24" id="facebook" xmlns="http://www.w3.org/2000/svg"><g clip-path="url(#gclip0_1165_31554)"><path d="M7 10v4h3v7h4v-7h3l1-4h-4V8a1 1 0 011-1h3V3h-3a5 5 0 00-5 5v2H7z"/></g><defs><clipPath id="gclip0_1165_31554"><path fill="#fff" d="M0 0h24v24H0z"/></clipPath></defs></svg><svg viewBox="0 0 16 16" id="heart" xmlns="http://www.w3.org/2000/svg"><path fill-rule="evenodd" clip-rule="evenodd" d="M5.607 3.34a2.667 2.667 0 00-2.143 4.563l.005.004 4.53 4.488 4.531-4.488a.66.66 0 01.043-.038A2.67 2.67 0 0012.421 4a2.667 2.667 0 00-3.889.403.667.667 0 01-1.068-.003 2.667 2.667 0 00-1.857-1.06zm7.816 5.56l-4.954 4.907a.667.667 0 01-.939 0l-4.998-4.95a4 4 0 015.47-5.836 4 4 0 015.465 5.84.67.67 0 01-.044.04z"/></svg><svg fill="none" viewBox="0 0 24 24" id="home" xmlns="http://www.w3.org/2000/svg"><g clip-path="url(#iclip0_1165_31576)"><path d="M5 12H3l9-9 9 9h-2M5 12v7a2 2 0 002 2h10a2 2 0 002-2v-7"/><path d="M9 21v-6a2 2 0 012-2h2a2 2 0 012 2v6"/></g><defs><clipPath id="iclip0_1165_31576"><path fill="#fff" d="M0 0h24v24H0z"/></clipPath></defs></svg><svg viewBox="0 0 16 17" id="image" xmlns="http://www.w3.org/2000/svg"><g fill-rule="evenodd" clip-rule="evenodd"><path d="M9.332 5.835c0-.369.299-.667.667-.667h.006a.667.667 0 010 1.333H10a.667.667 0 01-.667-.666z"/><path d="M3.999 3.165A1.333 1.333 0 002.665 4.5v8A1.333 1.333 0 004 13.832h4.333a.667.667 0 010 1.333H3.999A2.667 2.667 0 011.332 12.5v-8a2.667 2.667 0 012.667-2.667h8a2.667 2.667 0 012.666 2.667v4.333a.667.667 0 01-1.333 0V4.499a1.333 1.333 0 00-1.333-1.334h-8z"/><path d="M5.798 8.308L2.47 11.637a.667.667 0 01-.943-.943L4.861 7.36l.009-.01c.41-.393.914-.632 1.462-.632.549 0 1.053.239 1.462.633l.01.009 2.666 2.666a.667.667 0 11-.943.943L6.866 8.308c-.208-.198-.393-.256-.534-.256-.141 0-.326.058-.534.256z"/><path d="M10.468 9.643c.29-.276.54-.295.747-.215a.667.667 0 00.482-1.243c-.768-.298-1.556-.077-2.158.501l-.01.01-.666.666a.667.667 0 00.943.943l.662-.662zM10 13.167c0-.368.299-.667.667-.667h4a.667.667 0 010 1.333h-4a.667.667 0 01-.667-.666z"/><path d="M12.667 10.5c.368 0 .666.299.666.667v4a.667.667 0 11-1.333 0v-4c0-.368.299-.667.667-.667z"/></g></svg><svg fill="none" viewBox="0 0 24 24" id="linkedin" xmlns="http://www.w3.org/2000/svg"><g clip-path="url(#kclip0_1165_31564)"><path d="M4 6a2 2 0 012-2h12a2 2 0 012 2v12a2 2 0 01-2 2H6a2 2 0 01-2-2V6zM8 11v5M8 8v.01M12 16v-5"/><path d="M16 16v-3a2 2 0 00-4 0"/></g><defs><clipPath id="kclip0_1165_31564"><path fill="#fff" d="M0 0h24v24H0z"/></clipPath></defs></svg><svg fill="none" viewBox="0 0 24 24" id="load" xmlns="http://www.w3.org/2000/svg"><g clip-path="url(#lclip0_38_14197)"><path d="M19.932 13.04a8 8 0 11-9.925-8.788c3.9-1 7.935 1.007 9.425 4.747"/><path d="M20 4v5h-5"/></g><defs><clipPath id="lclip0_38_14197"><path fill="#fff" d="M0 0h24v24H0z"/></clipPath></defs></svg><svg viewBox="0 0 20 20" id="menu" xmlns="http://www.w3.org/2000/svg"><path fill-rule="evenodd" d="M19 4a1 1 0 01-1 1H2a1 1 0 010-2h16a1 1 0 011 1zm0 6a1 1 0 01-1 1H2a1 1 0 110-2h16a1 1 0 011 1zm-1 7a1 1 0 100-2H2a1 1 0 100 2h16z"/></svg><svg fill="none" viewBox="0 0 25 24" id="mode2" xmlns="http://www.w3.org/2000/svg"><g clip-path="url(#nclip0_38_7937)"><path d="M20 3c.663 0 1.299.21 1.768.586.469.375.732.884.732 1.414v14c0 .53-.263 1.04-.732 1.414-.47.375-1.105.586-1.768.586H5c-.663 0-1.299-.21-1.768-.586C2.763 20.04 2.5 19.53 2.5 19V5c0-.53.263-1.04.732-1.414C3.702 3.21 4.337 3 5 3h15zM14.5 7v10M10.5 7v10"/></g><defs><clipPath id="nclip0_38_7937"><path fill="#fff" transform="translate(.5)" d="M0 0h24v24H0z"/></clipPath></defs></svg><svg fill="none" viewBox="0 0 24 24" id="mode3" xmlns="http://www.w3.org/2000/svg"><g clip-path="url(#oclip0_38_29611)"><path d="M19.5 3c.663 0 1.299.21 1.768.586C21.737 3.96 22 4.47 22 5v14c0 .53-.263 1.04-.732 1.414-.47.375-1.105.586-1.768.586h-15c-.663 0-1.299-.21-1.768-.586C2.263 20.04 2 19.53 2 19V5c0-.53.263-1.04.732-1.414C3.202 3.21 3.837 3 4.5 3h15zM16 7v10M12 7v10M8 7v10"/></g><defs><clipPath id="oclip0_38_29611"><path fill="#fff" d="M0 0h24v24H0z"/></clipPath></defs></svg><svg fill="none" viewBox="0 0 24 24" id="mode4" xmlns="http://www.w3.org/2000/svg"><g clip-path="url(#pclip0_38_29618)"><path d="M19.5 3c.663 0 1.299.21 1.768.586C21.737 3.96 22 4.47 22 5v14c0 .53-.263 1.04-.732 1.414-.47.375-1.105.586-1.768.586h-15c-.663 0-1.299-.21-1.768-.586C2.263 20.04 2 19.53 2 19V5c0-.53.263-1.04.732-1.414C3.202 3.21 3.837 3 4.5 3h15zM14 7v10M18 7v10M10 7v10M6 7v10"/></g><defs><clipPath id="pclip0_38_29618"><path fill="#fff" d="M0 0h24v24H0z"/></clipPath></defs></svg><svg fill="none" viewBox="0 0 121 24" id="next" xmlns="http://www.w3.org/2000/svg"><path d="M115 8l4 4M115 16l4-4M2 12h115" stroke="#000" stroke-width="2" stroke-linecap="round" stroke-linejoin="round"/></svg><svg fill="none" viewBox="0 0 121 24" id="prev" xmlns="http://www.w3.org/2000/svg"><g opacity=".2" stroke="#000" stroke-width="2" stroke-linecap="round" stroke-linejoin="round"><path d="M119 12H4M6 8l-4 4M6 16l-4-4"/></g></svg><svg fill="none" viewBox="0 0 24 24" id="quote" xmlns="http://www.w3.org/2000/svg"><g clip-path="url(#sclip0_1029_60728)" stroke="#000" stroke-width="2" stroke-linecap="round" stroke-linejoin="round"><path d="M10 11H6a1 1 0 01-1-1V7a1 1 0 011-1h3a1 1 0 011 1v6c0 2.667-1.333 4.333-4 5M19 11h-4a1 1 0 01-1-1V7a1 1 0 011-1h3a1 1 0 011 1v6c0 2.667-1.333 4.333-4 5"/></g><defs><clipPath id="sclip0_1029_60728"><path fill="#fff" d="M0 0h24v24H0z"/></clipPath></defs></svg><svg fill="none" viewBox="0 0 24 24" id="resize" xmlns="http://www.w3.org/2000/svg"><g clip-path="url(#tclip0_38_32785)"><path d="M16 4h4v4M14 10l6-6M8 20H4v-4M4 20l6-6M16 20h4v-4M14 14l6 6M8 4H4v4M4 4l6 6"/></g><defs><clipPath id="tclip0_38_32785"><path fill="#fff" d="M0 0h24v24H0z"/></clipPath></defs></svg><svg fill="none" viewBox="0 0 24 24" id="search" xmlns="http://www.w3.org/2000/svg"><g clip-path="url(#uclip0_1_32046)"><path d="M3 10a7 7 0 1014 0 7 7 0 00-14 0zM21 21l-6-6"/></g><defs><clipPath id="uclip0_1_32046"><path fill="#fff" d="M0 0h24v24H0z"/></clipPath></defs></svg><svg fill="none" viewBox="0 0 24 24" id="twitter" xmlns="http://www.w3.org/2000/svg"><g clip-path="url(#vclip0_1165_31557)"><path d="M22 4.009c-1 .49-1.98.689-3 .99-1.121-1.265-2.783-1.335-4.38-.737S11.977 6.322 12 7.999v1c-3.245.083-6.135-1.395-8-4 0 0-4.182 7.433 4 11-1.872 1.247-3.739 2.088-6 2 3.308 1.803 6.913 2.423 10.034 1.517 3.58-1.04 6.522-3.723 7.651-7.742a13.84 13.84 0 00.497-3.753c0-.249 1.51-2.772 1.818-4.013v.001z"/></g><defs><clipPath id="vclip0_1165_31557"><path fill="#fff" d="M0 0h24v24H0z"/></clipPath></defs></svg><svg fill="none" viewBox="0 0 24 24" id="user" xmlns="http://www.w3.org/2000/svg"><g clip-path="url(#wclip0_1_32072)"><path d="M8 7a4 4 0 108 0 4 4 0 00-8 0zM6 21v-2a4 4 0 014-4h4a4 4 0 014 4v2"/></g><defs><clipPath id="wclip0_1_32072"><path fill="#fff" d="M0 0h24v24H0z"/></clipPath></defs></svg><svg fill="none" viewBox="0 0 24 24" id="youtube" xmlns="http://www.w3.org/2000/svg"><g clip-path="url(#xclip0_1165_31560)"><path d="M3 9a4 4 0 014-4h10a4 4 0 014 4v6a4 4 0 01-4 4H7a4 4 0 01-4-4V9z"/><path d="M10 9l5 3-5 3V9z"/></g><defs><clipPath id="xclip0_1165_31560"><path fill="#fff" d="M0 0h24v24H0z"/></clipPath></defs></svg></svg>