<?xml version="1.0" encoding="utf-8"?><svg viewBox="0 0 800 800" xmlns="http://www.w3.org/2000/svg" xmlns:xlink="http://www.w3.org/1999/xlink"><style>:root>svg{display:none}:root>svg:target{display:block}</style><svg fill="none" viewBox="0 0 25 24" id="arrow" xmlns="http://www.w3.org/2000/svg"><g clip-path="url(#aclip0_1_19728)"><path d="M5.5 12h14M15.5 16l4-4M15.5 8l4 4"/></g><defs><clipPath id="aclip0_1_19728"><path fill="#fff" transform="translate(.5)" d="M0 0h24v24H0z"/></clipPath></defs></svg><svg fill="none" viewBox="0 0 24 24" id="arrow2" xmlns="http://www.w3.org/2000/svg"><g clip-path="url(#bclip0_1_32053)"><path d="M18 9l-6 6-6-6" stroke="#212121" stroke-width="2" stroke-linecap="round" stroke-linejoin="round"/></g><defs><clipPath id="bclip0_1_32053"><path fill="#fff" transform="rotate(90 12 12)" d="M0 0h24v24H0z"/></clipPath></defs></svg><svg fill="none" viewBox="0 0 24 24" id="arrow2-str" xmlns="http://www.w3.org/2000/svg"><g clip-path="url(#cclip0_1_32053)"><path d="M18 9l-6 6-6-6"/></g><defs><clipPath id="cclip0_1_32053"><path fill="#fff" transform="rotate(90 12 12)" d="M0 0h24v24H0z"/></clipPath></defs></svg><svg viewBox="0 0 24 24" id="close" xmlns="http://www.w3.org/2000/svg"><path fill-rule="evenodd" clip-rule="evenodd" d="M19.207 6.207a1 1 0 00-1.414-1.414L12 10.586 6.207 4.793a1 1 0 00-1.414 1.414L10.586 12l-5.793 5.793a1 1 0 101.414 1.414L12 13.414l5.793 5.793a1 1 0 001.414-1.414L13.414 12l5.793-5.793z"/></svg><svg fill="none" viewBox="0 0 24 24" id="dollar" xmlns="http://www.w3.org/2000/svg"><g clip-path="url(#eclip0_1_32065)" stroke="#fff" stroke-width="2" stroke-linecap="round" stroke-linejoin="round"><path d="M16.7 8A3 3 0 0014 6h-4a3 3 0 100 6h4a3 3 0 010 6h-4a3 3 0 01-2.7-2M12 3v3m0 12v3"/></g><defs><clipPath id="eclip0_1_32065"><path fill="#fff" d="M0 0h24v24H0z"/></clipPath></defs></svg><svg fill="none" viewBox="0 0 24 24" id="facebook" xmlns="http://www.w3.org/2000/svg"><g clip-path="url(#fclip0_1165_31554)"><path d="M7 10v4h3v7h4v-7h3l1-4h-4V8a1 1 0 011-1h3V3h-3a5 5 0 00-5 5v2H7z"/></g><defs><clipPath id="fclip0_1165_31554"><path fill="#fff" d="M0 0h24v24H0z"/></clipPath></defs></svg><svg fill="none" viewBox="0 0 24 24" id="home" xmlns="http://www.w3.org/2000/svg"><g clip-path="url(#gclip0_1165_31576)"><path d="M5 12H3l9-9 9 9h-2M5 12v7a2 2 0 002 2h10a2 2 0 002-2v-7"/><path d="M9 21v-6a2 2 0 012-2h2a2 2 0 012 2v6"/></g><defs><clipPath id="gclip0_1165_31576"><path fill="#fff" d="M0 0h24v24H0z"/></clipPath></defs></svg><svg fill="none" viewBox="0 0 24 24" id="linkedin" xmlns="http://www.w3.org/2000/svg"><g clip-path="url(#hclip0_1165_31564)"><path d="M4 6a2 2 0 012-2h12a2 2 0 012 2v12a2 2 0 01-2 2H6a2 2 0 01-2-2V6zM8 11v5M8 8v.01M12 16v-5"/><path d="M16 16v-3a2 2 0 00-4 0"/></g><defs><clipPath id="hclip0_1165_31564"><path fill="#fff" d="M0 0h24v24H0z"/></clipPath></defs></svg><svg viewBox="0 0 20 20" id="menu" xmlns="http://www.w3.org/2000/svg"><path fill-rule="evenodd" d="M19 4a1 1 0 01-1 1H2a1 1 0 010-2h16a1 1 0 011 1zm0 6a1 1 0 01-1 1H2a1 1 0 110-2h16a1 1 0 011 1zm-1 7a1 1 0 100-2H2a1 1 0 100 2h16z"/></svg><svg fill="none" viewBox="0 0 121 24" id="next" xmlns="http://www.w3.org/2000/svg"><path d="M115 8l4 4M115 16l4-4M2 12h115" stroke="#000" stroke-width="2" stroke-linecap="round" stroke-linejoin="round"/></svg><svg fill="none" viewBox="0 0 121 24" id="prev" xmlns="http://www.w3.org/2000/svg"><g opacity=".2" stroke="#000" stroke-width="2" stroke-linecap="round" stroke-linejoin="round"><path d="M119 12H4M6 8l-4 4M6 16l-4-4"/></g></svg><svg fill="none" viewBox="0 0 24 24" id="quote" xmlns="http://www.w3.org/2000/svg"><g clip-path="url(#lclip0_1029_60728)" stroke="#000" stroke-width="2" stroke-linecap="round" stroke-linejoin="round"><path d="M10 11H6a1 1 0 01-1-1V7a1 1 0 011-1h3a1 1 0 011 1v6c0 2.667-1.333 4.333-4 5M19 11h-4a1 1 0 01-1-1V7a1 1 0 011-1h3a1 1 0 011 1v6c0 2.667-1.333 4.333-4 5"/></g><defs><clipPath id="lclip0_1029_60728"><path fill="#fff" d="M0 0h24v24H0z"/></clipPath></defs></svg><svg fill="none" viewBox="0 0 24 24" id="search" xmlns="http://www.w3.org/2000/svg"><g clip-path="url(#mclip0_1_32046)"><path d="M3 10a7 7 0 1014 0 7 7 0 00-14 0zM21 21l-6-6"/></g><defs><clipPath id="mclip0_1_32046"><path fill="#fff" d="M0 0h24v24H0z"/></clipPath></defs></svg><svg fill="none" viewBox="0 0 24 24" id="twitter" xmlns="http://www.w3.org/2000/svg"><g clip-path="url(#nclip0_1165_31557)"><path d="M22 4.009c-1 .49-1.98.689-3 .99-1.121-1.265-2.783-1.335-4.38-.737S11.977 6.322 12 7.999v1c-3.245.083-6.135-1.395-8-4 0 0-4.182 7.433 4 11-1.872 1.247-3.739 2.088-6 2 3.308 1.803 6.913 2.423 10.034 1.517 3.58-1.04 6.522-3.723 7.651-7.742a13.84 13.84 0 00.497-3.753c0-.249 1.51-2.772 1.818-4.013v.001z"/></g><defs><clipPath id="nclip0_1165_31557"><path fill="#fff" d="M0 0h24v24H0z"/></clipPath></defs></svg><svg fill="none" viewBox="0 0 24 24" id="user" xmlns="http://www.w3.org/2000/svg"><g clip-path="url(#oclip0_1_32072)"><path d="M8 7a4 4 0 108 0 4 4 0 00-8 0zM6 21v-2a4 4 0 014-4h4a4 4 0 014 4v2"/></g><defs><clipPath id="oclip0_1_32072"><path fill="#fff" d="M0 0h24v24H0z"/></clipPath></defs></svg><svg fill="none" viewBox="0 0 24 24" id="youtube" xmlns="http://www.w3.org/2000/svg"><g clip-path="url(#pclip0_1165_31560)"><path d="M3 9a4 4 0 014-4h10a4 4 0 014 4v6a4 4 0 01-4 4H7a4 4 0 01-4-4V9z"/><path d="M10 9l5 3-5 3V9z"/></g><defs><clipPath id="pclip0_1165_31560"><path fill="#fff" d="M0 0h24v24H0z"/></clipPath></defs></svg></svg>